:FULLY-SPECIFIED
:FORCE-ALL-JOINTS-BE-3DOF
:DEGREES
16
root 0.256764 17.177 -28.1694 4.55167 -2.00822 -0.57515
lfemur -13.9882 4.48626 -20.8643
ltibia 67.7141 0 0
lfoot -5.93897 -1.3261 0
ltoes -10.384 0 0
rfemur -28.2968 -1.2288 22.4597
rtibia 83.7619 0 0
rfoot 2.14198 -5.68589 0
rtoes 2.17772 0 0
lowerback 18.9639 -1.06466 -1.71667
upperback 1.91231 -1.84807 -0.562592
thorax -8.47468 -0.823525 0.842865
lowerneck -2.3809 1.00132 -0.499271
upperneck -14.3201 1.41488 1.12076
head -4.05671 0.697084 0.443497
lclavicle -1.13962e-14 -7.56354e-16 0
lhumerus -23.9766 -17.0759 87.8239
lradius 110.231 0 0
lwrist 29.9256 0 0
lhand -38.0705 10.4751 0
lfingers 7.12502 0 0
lthumb -11.1072 40.158 0
rclavicle -1.13962e-14 -7.56354e-16 0
rhumerus -45.8226 9.99408 -88.2824
rradius 88.5289 0 0
rwrist -1.53878 0 0
rhand -47.3152 39.4867 0
rfingers 7.12502 0 0
rthumb -20.0093 10.5092 0
17
root 0.267763 17.1813 -27.6321 4.54255 -2.30022 -0.7548
lfemur -14.4536 4.90133 -20.3982
ltibia 69.4824 0 0
lfoot -5.10419 -1.45207 0
ltoes -10.3283 0 0
rfemur -27.7715 -1.04308 22.8415
rtibia 82.1303 0 0
rfoot 1.42687 -5.71349 0
rtoes 1.75448 0 0
lowerback 18.9444 -1.05405 -1.49312
upperback 1.92599 -1.77864 -0.45501
thorax -8.45253 -0.796456 0.814023
lowerneck -2.33781 1.07676 -0.444365
upperneck -14.4132 1.49364 0.921816
head -4.08209 0.741809 0.367529
lclavicle -1.15198e-14 -3.29694e-16 0
lhumerus -24.9071 -16.8385 88.1575
lradius 109.988 0 0
lwrist 30.0872 0 0
lhand -38.1291 10.6146 0
lfingers 7.12502 0 0
lthumb -11.1637 40.2943 0
rclavicle -1.15198e-14 -3.29694e-16 0
rhumerus -45.236 10.1004 -88.2809
rradius 89.0256 0 0
rwrist -1.58852 0 0
rhand -47.2113 39.4335 0
rfingers 7.12502 0 0
rthumb -19.9094 10.4459 0
18
root 0.278762 17.1857 -27.0949 4.53343 -2.59221 -0.93445
lfemur -14.9191 5.31641 -19.9322
ltibia 71.2507 0 0
lfoot -4.26941 -1.57805 0
ltoes -10.2727 0 0
rfemur -27.2461 -0.857368 23.2233
rtibia 80.4987 0 0
rfoot 0.711751 -5.74109 0
rtoes 1.33124 0 0
lowerback 18.9248 -1.04345 -1.26957
upperback 1.93966 -1.7092 -0.347429
thorax -8.43039 -0.769387 0.785182
lowerneck -2.29472 1.1522 -0.389459
upperneck -14.5062 1.57241 0.722876
head -4.10746 0.786534 0.291561
lclavicle -1.16435e-14 9.69659e-17 0
lhumerus -25.8375 -16.6012 88.4911
lradius 109.746 0 0
lwrist 30.2488 0 0
lhand -38.1877 10.7541 0
lfingers 7.12502 0 0
lthumb -11.2202 40.4307 0
rclavicle -1.16435e-14 9.69659e-17 0
rhumerus -44.6494 10.2068 -88.2794
rradius 89.5223 0 0
rwrist -1.63826 0 0
rhand -47.1074 39.3803 0
rfingers 7.12502 0 0
rthumb -19.8094 10.3826 0
19
root 0.289761 17.1901 -26.5576 4.5243 -2.88421 -1.1141
lfemur -15.3846 5.73148 -19.4662
ltibia 73.019 0 0
lfoot -3.43464 -1.70403 0
ltoes -10.2171 0 0
rfemur -26.7208 -0.671651 23.6051
rtibia 78.8671 0 0
rfoot -0.00336341 -5.7687 0
rtoes 0.908001 0 0
lowerback 18.9053 -1.03285 -1.04602
upperback 1.95333 -1.63977 -0.239848
thorax -8.40824 -0.742318 0.75634
lowerneck -2.25163 1.22764 -0.334553
upperneck -14.5993 1.65117 0.523936
head -4.13283 0.831259 0.215594
lclavicle -1.17671e-14 5.23626e-16 0
lhumerus -26.7679 -16.3639 88.8248
lradius 109.504 0 0
lwrist 30.4105 0 0
lhand -38.2463 10.8936 0
lfingers 7.12502 0 0
lthumb -11.2767 40.5671 0
rclavicle -1.17671e-14 5.23626e-16 0
rhumerus -44.0627 10.3131 -88.278
rradius 90.019 0 0
rwrist -1.68801 0 0
rhand -47.0034 39.3271 0
rfingers 7.12502 0 0
rthumb -19.7095 10.3193 0
20
root 0.30076 17.1945 -26.0204 4.51518 -3.17621 -1.29375
lfemur -15.8501 6.14656 -19.0002
ltibia 74.7873 0 0
lfoot -2.59986 -1.83 0
ltoes -10.1614 0 0
rfemur -26.1955 -0.485935 23.9869
rtibia 77.2355 0 0
rfoot -0.718478 -5.7963 0
rtoes 0.484762 0 0
lowerback 18.8858 -1.02224 -0.822472
upperback 1.967 -1.57033 -0.132267
thorax -8.38609 -0.715249 0.727498
lowerneck -2.20853 1.30308 -0.279647
upperneck -14.6924 1.72993 0.324995
head -4.15821 0.875985 0.139626
lclavicle -1.18907e-14 9.50285e-16 0
lhumerus -27.6983 -16.1266 89.1584
lradius 109.261 0 0
lwrist 30.5721 0 0
lhand -38.3049 11.0331 0
lfingers 7.12502 0 0
lthumb -11.3332 40.7034 0
rclavicle -1.18907e-14 9.50285e-16 0
rhumerus -43.4761 10.4194 -88.2765
rradius 90.5157 0 0
rwrist -1.73775 0 0
rhand -46.8995 39.2739 0
rfingers 7.12502 0 0
rthumb -19.6096 10.2559 0
21
root 0.311759 17.1989 -25.4831 4.50605 -3.4682 -1.4734
lfemur -16.3156 6.56163 -18.5341
ltibia 76.5556 0 0
lfoot -1.76509 -1.95598 0
ltoes -10.1058 0 0
rfemur -25.6702 -0.300218 24.3687
rtibia 75.6039 0 0
rfoot -1.43359 -5.8239 0
rtoes 0.0615241 0 0
lowerback 18.8662 -1.01164 -0.598924
upperback 1.98067 -1.5009 -0.0246856
thorax -8.36394 -0.68818 0.698657
lowerneck -2.16544 1.37852 -0.224741
upperneck -14.7855 1.80869 0.126055
head -4.18358 0.92071 0.0636588
lclavicle -1.20144e-14 1.37695e-15 0
lhumerus -28.6287 -15.8893 89.4921
lradius 109.019 0 0
lwrist 30.7337 0 0
lhand -38.3635 11.1726 0
lfingers 7.12502 0 0
lthumb -11.3897 40.8398 0
rclavicle -1.20144e-14 1.37695e-15 0
rhumerus -42.8895 10.5258 -88.275
rradius 91.0124 0 0
rwrist -1.78749 0 0
rhand -46.7956 39.2207 0
rfingers 7.12502 0 0
rthumb -19.5097 10.1926 0
22
root 0.322758 17.2032 -24.9459 4.49693 -3.7602 -1.65305
lfemur -16.7811 6.97671 -18.0681
ltibia 78.324 0 0
lfoot -0.930312 -2.08196 0
ltoes -10.0502 0 0
rfemur -25.1448 -0.114502 24.7506
rtibia 73.9723 0 0
rfoot -2.14871 -5.8515 0
rtoes -0.361714 0 0
lowerback 18.8467 -1.00103 -0.375376
upperback 1.99434 -1.43146 0.0828956
thorax -8.3418 -0.661112 0.669815
lowerneck -2.12235 1.45396 -0.169836
upperneck -14.8785 1.88746 -0.0728851
head -4.20895 0.965435 -0.0123088
lclavicle -1.2138e-14 1.8036e-15 0
lhumerus -29.5592 -15.652 89.8257
lradius 108.777 0 0
lwrist 30.8954 0 0
lhand -38.4222 11.3121 0
lfingers 7.12502 0 0
lthumb -11.4463 40.9762 0
rclavicle -1.2138e-14 1.8036e-15 0
rhumerus -42.3028 10.6321 -88.2735
rradius 91.509 0 0
rwrist -1.83723 0 0
rhand -46.6916 39.1674 0
rfingers 7.12502 0 0
rthumb -19.4097 10.1293 0
23
root 0.333757 17.2076 -24.4086 4.4878 -4.05219 -1.8327
lfemur -17.2466 7.39178 -17.6021
ltibia 80.0923 0 0
lfoot -0.0955366 -2.20793 0
ltoes -9.99454 0 0
rfemur -24.6195 0.0712149 25.1324
rtibia 72.3407 0 0
rfoot -2.86382 -5.8791 0
rtoes -0.784952 0 0
lowerback 18.8271 -0.990426 -0.151828
upperback 2.00801 -1.36203 0.190477
thorax -8.31965 -0.634043 0.640973
lowerneck -2.07926 1.5294 -0.11493
upperneck -14.9716 1.96622 -0.271825
head -4.23432 1.01016 -0.0882763
lclavicle -1.22616e-14 2.23026e-15 0
lhumerus -30.4896 -15.4147 90.1594
lradius 108.535 0 0
lwrist 31.057 0 0
lhand -38.4808 11.4516 0
lfingers 7.12502 0 0
lthumb -11.5028 41.1126 0
rclavicle -1.22616e-14 2.23026e-15 0
rhumerus -41.7162 10.7385 -88.272
rradius 92.0057 0 0
rwrist -1.88697 0 0
rhand -46.5877 39.1142 0
rfingers 7.12502 0 0
rthumb -19.3098 10.066 0
24
root 0.344756 17.212 -23.8714 4.47868 -4.34419 -2.01235
lfemur -17.712 7.80686 -17.136
ltibia 81.8606 0 0
lfoot 0.739239 -2.33391 0
ltoes -9.93891 0 0
rfemur -24.0942 0.256931 25.5142
rtibia 70.7091 0 0
rfoot -3.57894 -5.9067 0
rtoes -1.20819 0 0
lowerback 18.8076 -0.979822 0.0717207
upperback 2.02168 -1.29259 0.298058
thorax -8.2975 -0.606974 0.612132
lowerneck -2.03616 1.60483 -0.0600237
upperneck -15.0647 2.04498 -0.470766
head -4.2597 1.05489 -0.164244
lclavicle -1.23853e-14 2.65692e-15 0
lhumerus -31.42 -15.1774 90.493
lradius 108.292 0 0
lwrist 31.2186 0 0
lhand -38.5394 11.5911 0
lfingers 7.12502 0 0
lthumb -11.5593 41.2489 0
rclavicle -1.23853e-14 2.65692e-15 0
rhumerus -41.1296 10.8448 -88.2705
rradius 92.5024 0 0
rwrist -1.93671 0 0
rhand -46.4838 39.061 0
rfingers 7.12502 0 0
rthumb -19.2099 10.0027 0
